<svg width="30" height="30" viewBox="0 0 30 30" fill="none" xmlns="http://www.w3.org/2000/svg">
<g clip-path="url(#clip0_1222_7128)">
<path fill-rule="evenodd" clip-rule="evenodd" d="M10.3355 3.48576C10.4359 3.3853 10.5722 3.32886 10.7143 3.32886H19.2857C19.4278 3.32886 19.564 3.3853 19.6645 3.48576C19.765 3.58621 19.8214 3.72248 19.8214 3.86457V6.42856H10.1786V3.86457C10.1786 3.72248 10.235 3.58621 10.3355 3.48576ZM6.96429 6.42856V3.86457C6.96429 2.87001 7.35936 1.91617 8.06263 1.21291C8.76589 0.509651 9.71972 0.114563 10.7143 0.114563H19.2857C20.2803 0.114563 21.2341 0.509651 21.9373 1.21291C22.6406 1.91617 23.0357 2.87001 23.0357 3.86457V6.42856H26.7857C28.5609 6.42856 30 7.86764 30 9.64285V26.7857C30 28.5608 28.5609 30 26.7857 30H3.21429C1.43908 30 0 28.5608 0 26.7857V9.64285C0 7.86764 1.43908 6.42856 3.21429 6.42856H6.96429ZM6.16071 14.0961C6.16071 13.3564 6.76033 12.7568 7.5 12.7568H22.5C23.2397 12.7568 23.8393 13.3564 23.8393 14.0961C23.8393 14.8358 23.2397 15.4354 22.5 15.4354H7.5C6.76033 15.4354 6.16071 14.8358 6.16071 14.0961ZM7.5 20.9932C6.76033 20.9932 6.16071 21.5927 6.16071 22.3324C6.16071 23.0721 6.76033 23.6717 7.5 23.6717H22.5C23.2397 23.6717 23.8393 23.0721 23.8393 22.3324C23.8393 21.5927 23.2397 20.9932 22.5 20.9932H7.5Z" fill="white"/>
</g>
<defs>
<clipPath id="clip0_1222_7128">
<rect width="30" height="30" fill="white"/>
</clipPath>
</defs>
</svg>
