<svg width="32" height="32" viewBox="0 0 32 32" fill="none" xmlns="http://www.w3.org/2000/svg">
<path d="M10.5367 9.19266H22.4633C22.5894 9.19266 22.6927 9.08945 22.6927 8.9633C22.6927 7.81651 22.4404 6.76433 21.9501 5.86411C21.457 4.96101 20.7316 4.23567 19.8286 3.74255C18.9283 3.25229 17.8761 3 16.7294 3H16.2706C15.1239 3 14.0717 3.25229 13.1714 3.74255C12.2683 4.23567 11.543 4.96101 11.0499 5.86411C10.5596 6.76433 10.3073 7.81651 10.3073 8.9633C10.3073 9.08945 10.4105 9.19266 10.5367 9.19266Z" fill="white"/>
<path d="M28.7706 15.844H24.5275V12.9771C26.7294 12.9771 28.5126 11.1938 28.5126 8.99196C28.5126 8.86581 28.4094 8.7626 28.2833 8.7626H26.5631C26.4369 8.7626 26.3337 8.86581 26.3337 8.99196C26.3337 9.98967 25.5252 10.7982 24.5275 10.7982H8.47248C7.47477 10.7982 6.66628 9.98967 6.66628 8.99196C6.66628 8.86581 6.56307 8.7626 6.43693 8.7626H4.71674C4.5906 8.7626 4.48739 8.86581 4.48739 8.99196C4.48739 11.1938 6.27064 12.9771 8.47248 12.9771V15.844H4.22936C4.10321 15.844 4 15.9472 4 16.0734V17.6789C4 17.805 4.10321 17.9082 4.22936 17.9082H8.47248V20.6605C8.47248 20.8469 8.47821 21.0332 8.49255 21.2139C6.5258 22.0539 5.14679 24.0063 5.14679 26.2798C5.14679 26.406 5.25 26.5092 5.37615 26.5092H6.98165C7.1078 26.5092 7.21101 26.406 7.21101 26.2798C7.21101 25.0126 7.89622 23.9031 8.91972 23.3068C9.09174 23.7999 9.30963 24.2701 9.57053 24.7116C10.2672 25.9014 11.262 26.8962 12.4518 27.5929C13.2804 28.0774 14.2007 28.4186 15.1841 28.582C15.3102 28.582 15.4134 28.4788 15.4134 28.3526V15.0413C15.4134 14.9151 15.5166 14.8119 15.6428 14.8119H17.363C17.4891 14.8119 17.5923 14.9151 17.5923 15.0413V28.3498C17.5923 28.4759 17.6955 28.5791 17.8217 28.5791C18.805 28.4157 19.7253 28.0745 20.5539 27.59C21.7437 26.8933 22.7385 25.8985 23.4352 24.7087C23.6961 24.2643 23.914 23.7941 24.086 23.3039C25.1038 23.9031 25.789 25.0126 25.789 26.2798C25.789 26.406 25.8922 26.5092 26.0183 26.5092H27.6239C27.75 26.5092 27.8532 26.406 27.8532 26.2798C27.8532 24.0063 26.4742 22.0539 24.5075 21.2139C24.5189 21.0304 24.5275 20.8469 24.5275 20.6605V17.9082H28.7706C28.8968 17.9082 29 17.805 29 17.6789V16.0734C29 15.9472 28.8968 15.844 28.7706 15.844Z" fill="white"/>
</svg>
