<svg width="16" height="16" viewBox="0 0 16 16" fill="none" xmlns="http://www.w3.org/2000/svg">
<path fill-rule="evenodd" clip-rule="evenodd" d="M9 2.5H3C2.86739 2.5 2.74021 2.55268 2.64645 2.64645C2.55268 2.74021 2.5 2.86739 2.5 3V13C2.5 13.1326 2.55268 13.2598 2.64645 13.3536C2.74021 13.4473 2.86739 13.5 3 13.5H9C9.13261 13.5 9.25979 13.4473 9.35355 13.3536C9.44732 13.2598 9.5 13.1326 9.5 13V3C9.5 2.86739 9.44732 2.74021 9.35355 2.64645C9.25979 2.55268 9.13261 2.5 9 2.5ZM3 1C2.46957 1 1.96086 1.21071 1.58579 1.58579C1.21071 1.96086 1 2.46957 1 3V13C1 13.5304 1.21071 14.0391 1.58579 14.4142C1.96086 14.7893 2.46957 15 3 15H9C9.32519 15.0001 9.6455 14.921 9.93319 14.7694C10.2209 14.6178 10.4673 14.3983 10.651 14.13C10.6878 14.0846 10.7206 14.0361 10.749 13.985L14.627 6.535C14.7332 6.33113 14.7982 6.10834 14.8183 5.87933C14.8384 5.65033 14.8132 5.41962 14.7441 5.20036C14.675 4.98111 14.5634 4.77762 14.4157 4.60151C14.2679 4.4254 14.0869 4.28013 13.883 4.174L10.971 2.658C10.8904 2.19373 10.6485 1.77282 10.2879 1.46949C9.92732 1.16616 9.47121 0.999892 9 1H3ZM13.297 5.841L11 10.254V4.364L13.19 5.504C13.2192 5.5191 13.2451 5.5398 13.2662 5.5649C13.2874 5.59001 13.3034 5.61904 13.3133 5.65034C13.3232 5.68163 13.3269 5.71458 13.3241 5.74729C13.3213 5.78 13.3121 5.81185 13.297 5.841ZM8.28 7.281C8.41669 7.13961 8.49237 6.9502 8.49076 6.75355C8.48914 6.5569 8.41035 6.36875 8.27136 6.22963C8.13237 6.09051 7.9443 6.01154 7.74765 6.00974C7.551 6.00794 7.36152 6.08345 7.22 6.22L5.25 8.19L4.78 7.72C4.63783 7.58752 4.44978 7.5154 4.25548 7.51883C4.06118 7.52225 3.87579 7.60097 3.73838 7.73838C3.60097 7.87579 3.52225 8.06118 3.51883 8.25548C3.5154 8.44978 3.58752 8.63782 3.72 8.78L4.72 9.78C4.86063 9.92045 5.05125 9.99934 5.25 9.99934C5.44875 9.99934 5.63937 9.92045 5.78 9.78L8.28 7.281Z" fill="white"/>
</svg>
