<svg width="24" height="24" viewBox="0 0 24 24" fill="none" xmlns="http://www.w3.org/2000/svg">
<path d="M13 4V2C17.66 2.5 21.33 6.19 21.85 10.85C22.45 16.34 18.5 21.28 13 21.88V19.88C16.64 19.43 19.5 16.56 19.96 12.92C20.0895 11.8772 20.0122 10.819 19.7324 9.80614C19.4526 8.79323 18.9759 7.84542 18.3294 7.01694C17.683 6.18846 16.8795 5.49556 15.9651 4.97788C15.0506 4.46021 14.043 4.12791 13 4ZM5.66999 4.2C7.18583 2.94875 9.0429 2.18223 11 2V4.06C9.56999 4.26 8.21999 4.84 7.09999 5.74L5.66999 4.2ZM2.04999 11C2.23508 9.04181 3.00513 7.18463 4.25999 5.67L5.68999 7.1C4.80325 8.22927 4.23677 9.57638 4.04999 11H2.04999ZM4.26999 18.33C3.02767 16.8078 2.25926 14.9546 2.05999 13H4.05999C4.23999 14.42 4.80999 15.77 5.68999 16.9L4.26999 18.33ZM5.66999 19.74L7.05999 18.37H7.09999C8.22999 19.25 9.57999 19.82 11 20V22C9.03999 21.79 7.17999 21 5.66999 19.74ZM11.6 8C11.8 8 12 8.1 12.2 8.2L15.8 11.8C15.9 12 16 12.2 16 12.4C16 12.7 15.9 12.9 15.8 13L13 15.8C12.8 15.9 12.6 16 12.4 16C12.1 16 11.9 15.9 11.8 15.8L8.19999 12.2C8.09999 12 7.99999 11.8 7.99999 11.6V8.8C7.99999 8.4 8.39999 8 8.79999 8H11.6ZM8.79999 9.4C8.79999 9.7 9.09999 10 9.39999 10C9.69999 10 9.99999 9.7 9.99999 9.4C9.99999 9.1 9.69999 8.8 9.39999 8.8C9.09999 8.8 8.79999 9.1 8.79999 9.4Z" fill="white"/>
</svg>
