<svg width="16" height="16" viewBox="0 0 16 16" fill="none" xmlns="http://www.w3.org/2000/svg">
<path fill-rule="evenodd" clip-rule="evenodd" d="M3 1C2.46957 1 1.96086 1.21071 1.58579 1.58579C1.21071 1.96086 1 2.46957 1 3V13C1 13.5304 1.21071 14.0391 1.58579 14.4142C1.96086 14.7893 2.46957 15 3 15H6.25C6.44891 15 6.63968 14.921 6.78033 14.7803C6.92098 14.6397 7 14.4489 7 14.25C7 14.0511 6.92098 13.8603 6.78033 13.7197C6.63968 13.579 6.44891 13.5 6.25 13.5H3C2.86739 13.5 2.74021 13.4473 2.64645 13.3536C2.55268 13.2598 2.5 13.1326 2.5 13V3C2.5 2.86739 2.55268 2.74021 2.64645 2.64645C2.74021 2.55268 2.86739 2.5 3 2.5H9C9.13261 2.5 9.25979 2.55268 9.35355 2.64645C9.44732 2.74021 9.5 2.86739 9.5 3V8.25C9.5 8.44891 9.57902 8.63968 9.71967 8.78033C9.86032 8.92098 10.0511 9 10.25 9C10.4489 9 10.6397 8.92098 10.7803 8.78033C10.921 8.63968 11 8.44891 11 8.25V4.364L13.19 5.504C13.2193 5.5191 13.2453 5.53984 13.2665 5.56502C13.2878 5.59021 13.3038 5.61934 13.3138 5.65075C13.3237 5.68216 13.3274 5.71523 13.3245 5.74805C13.3216 5.78087 13.3123 5.8128 13.297 5.842L12.225 7.904C12.1406 8.07957 12.1278 8.28111 12.1893 8.46595C12.2509 8.65079 12.3819 8.80444 12.5547 8.89436C12.7276 8.98428 12.9286 9.00342 13.1153 8.94773C13.302 8.89205 13.4597 8.7659 13.555 8.596L14.628 6.534C14.8421 6.12225 14.884 5.64229 14.7443 5.19971C14.6045 4.75713 14.2947 4.38817 13.883 4.174L10.971 2.658C10.8904 2.19373 10.6485 1.77282 10.2879 1.46949C9.92732 1.16616 9.47121 0.999892 9 1H3ZM9 13C9 12.8011 9.07902 12.6103 9.21967 12.4697C9.36032 12.329 9.55109 12.25 9.75 12.25H11.25V10.75C11.25 10.5511 11.329 10.3603 11.4697 10.2197C11.6103 10.079 11.8011 10 12 10C12.1989 10 12.3897 10.079 12.5303 10.2197C12.671 10.3603 12.75 10.5511 12.75 10.75V12.25H14.25C14.4489 12.25 14.6397 12.329 14.7803 12.4697C14.921 12.6103 15 12.8011 15 13C15 13.1989 14.921 13.3897 14.7803 13.5303C14.6397 13.671 14.4489 13.75 14.25 13.75H12.75V15.25C12.75 15.4489 12.671 15.6397 12.5303 15.7803C12.3897 15.921 12.1989 16 12 16C11.8011 16 11.6103 15.921 11.4697 15.7803C11.329 15.6397 11.25 15.4489 11.25 15.25V13.75H9.75C9.55109 13.75 9.36032 13.671 9.21967 13.5303C9.07902 13.3897 9 13.1989 9 13Z" fill="white"/>
</svg>
