<svg width="24" height="24" viewBox="0 0 24 24" fill="none" xmlns="http://www.w3.org/2000/svg">
<path d="M13 2.03V4.05C17.39 4.59 20.5 8.58 19.96 12.97C19.5 16.61 16.64 19.5 13 19.93V21.93C18.5 21.38 22.5 16.5 21.95 11C21.5 6.25 17.73 2.5 13 2.03ZM11 2.06C9.04999 2.25 7.18999 3 5.66999 4.26L7.09999 5.74C8.21999 4.84 9.56999 4.26 11 4.06V2.06ZM4.25999 5.67C3.01043 7.18782 2.24108 9.04331 2.04999 11H4.04999C4.23999 9.58 4.79999 8.23 5.68999 7.1L4.25999 5.67ZM15.5 8.5L10.62 13.38L8.49999 11.26L7.43999 12.32L10.62 15.5L16.56 9.56L15.5 8.5ZM2.05999 13C2.25999 14.96 3.02999 16.81 4.26999 18.33L5.68999 16.9C4.80683 15.7696 4.24385 14.4226 4.05999 13H2.05999ZM7.09999 18.37L5.66999 19.74C7.18496 21.0024 9.03935 21.7887 11 22V20C9.57736 19.8161 8.23034 19.2532 7.09999 18.37Z" fill="white"/>
</svg>
