<svg width="16" height="16" viewBox="0 0 16 16" fill="none" xmlns="http://www.w3.org/2000/svg">
<path d="M8.66664 2.66666V1.33333C11.7733 1.66666 14.22 4.12666 14.5666 7.23333C14.9666 10.8933 12.3333 14.1867 8.66664 14.5867V13.2533C11.0933 12.9533 13 11.04 13.3066 8.61333C13.393 7.91811 13.3414 7.21269 13.1549 6.53742C12.9684 5.86215 12.6506 5.23028 12.2196 4.67796C11.7886 4.12564 11.253 3.6637 10.6434 3.31858C10.0337 2.97347 9.36199 2.75193 8.66664 2.66666ZM3.77997 2.79999C4.79053 1.96583 6.02858 1.45481 7.3333 1.33333V2.70666C6.37997 2.83999 5.47997 3.22666 4.73331 3.82666L3.77997 2.79999ZM1.36664 7.33333C1.49003 6.02787 2.0034 4.78975 2.83997 3.78L3.7933 4.73333C3.20214 5.48618 2.82449 6.38425 2.69997 7.33333H1.36664ZM2.84664 12.22C2.01842 11.2052 1.50615 9.96975 1.3733 8.66666H2.70664C2.82664 9.61333 3.20664 10.5133 3.7933 11.2667L2.84664 12.22ZM3.77997 13.16L4.70664 12.2467H4.73331C5.48664 12.8333 6.38664 13.2133 7.3333 13.3333V14.6667C6.02664 14.5267 4.78664 14 3.77997 13.16ZM7.73331 5.33333C7.86664 5.33333 7.99997 5.39999 8.1333 5.46666L10.5333 7.86666C10.6 8 10.6666 8.13333 10.6666 8.26666C10.6666 8.46666 10.6 8.6 10.5333 8.66666L8.66664 10.5333C8.5333 10.6 8.39997 10.6667 8.26664 10.6667C8.06664 10.6667 7.93331 10.6 7.86664 10.5333L5.46664 8.13333C5.39997 7.99999 5.3333 7.86666 5.3333 7.73333V5.86666C5.3333 5.6 5.59997 5.33333 5.86664 5.33333H7.73331ZM5.86664 6.26666C5.86664 6.46666 6.06664 6.66666 6.26664 6.66666C6.46664 6.66666 6.66664 6.46666 6.66664 6.26666C6.66664 6.06666 6.46664 5.86666 6.26664 5.86666C6.06664 5.86666 5.86664 6.06666 5.86664 6.26666Z" fill="white"/>
</svg>
