<svg width="32" height="32" viewBox="0 0 32 32" fill="none" xmlns="http://www.w3.org/2000/svg">
<path fill-rule="evenodd" clip-rule="evenodd" d="M4.79998 1.60001C3.03267 1.60001 1.59998 3.03272 1.59998 4.80001V27.2C1.59998 28.9673 3.03267 30.4 4.79998 30.4H27.2C28.9673 30.4 30.4 28.9673 30.4 27.2V4.80001C30.4 3.03272 28.9673 1.60001 27.2 1.60001H4.79998ZM9.59998 17.6C9.59998 16.7163 8.88363 16 7.99998 16C7.11632 16 6.39998 16.7163 6.39998 17.6V24C6.39998 24.8837 7.11632 25.6 7.99998 25.6C8.88363 25.6 9.59998 24.8837 9.59998 24V17.6ZM16 11.2C16.8836 11.2 17.6 11.9163 17.6 12.8V24C17.6 24.8837 16.8836 25.6 16 25.6C15.1163 25.6 14.4 24.8837 14.4 24V12.8C14.4 11.9163 15.1163 11.2 16 11.2ZM25.6 8.00001C25.6 7.11631 24.8836 6.40001 24 6.40001C23.1163 6.40001 22.4 7.11631 22.4 8.00001V24C22.4 24.8837 23.1163 25.6 24 25.6C24.8836 25.6 25.6 24.8837 25.6 24V8.00001Z" fill="white"/>
</svg>
