<svg width="32" height="32" viewBox="0 0 32 32" fill="none" xmlns="http://www.w3.org/2000/svg">
<path fill-rule="evenodd" clip-rule="evenodd" d="M6.66667 4C5.19391 4 4 5.19393 4 6.66667V25.3333C4 26.8061 5.19391 28 6.66667 28H25.3334C26.8061 28 28 26.8061 28 25.3333V6.66667C28 5.19393 26.8061 4 25.3334 4H6.66667ZM10.6667 17.3333C10.6667 16.5969 10.0697 16 9.33334 16C8.59695 16 8 16.5969 8 17.3333V22.6667C8 23.4031 8.59695 24 9.33334 24C10.0697 24 10.6667 23.4031 10.6667 22.6667V17.3333ZM16 12C16.7364 12 17.3334 12.5969 17.3334 13.3333V22.6667C17.3334 23.4031 16.7364 24 16 24C15.2636 24 14.6667 23.4031 14.6667 22.6667V13.3333C14.6667 12.5969 15.2636 12 16 12ZM24 9.33333C24 8.59692 23.403 8 22.6667 8C21.9303 8 21.3334 8.59692 21.3334 9.33333V22.6667C21.3334 23.4031 21.9303 24 22.6667 24C23.403 24 24 23.4031 24 22.6667V9.33333Z" fill="white"/>
</svg>
