<svg width="32" height="32" viewBox="0 0 32 32" fill="none" xmlns="http://www.w3.org/2000/svg">
<path d="M26.3169 17.928L26.2044 16.7972L26.1669 16.8006L26.1306 16.8074L26.3169 17.928ZM26.3169 17.928L26.4306 19.0587L26.4681 19.0553L26.5044 19.0496L26.3169 17.928ZM21.7259 24.1578L22.4452 23.2782L22.4361 23.2714L21.7259 24.1578ZM21.7259 24.1578L21.0065 25.0374L21.0155 25.0454L21.7259 24.1578ZM11.2754 24.1578L10.556 23.2794L10.5378 23.2941L10.5208 23.3089L11.2754 24.1578ZM11.2754 24.1578L11.9947 25.0386L12.0129 25.0237L12.03 25.0079L11.2754 24.1578ZM6.6831 13.0732V11.9368H6.62628L6.5706 11.9425L6.6831 13.0732ZM6.6831 13.0732V14.2096H6.73992L6.79674 14.204L6.6831 13.0732ZM20.0587 5.56946C20.0397 5.3509 20.0128 5.13298 19.9803 4.91602C19.9449 4.6773 19.872 4.44565 19.7643 4.22963L17.745 5.27286C17.7188 5.22172 17.7245 5.20354 17.7393 5.29331C17.7563 5.39446 17.7711 5.53537 17.7972 5.79675L20.0587 5.56946ZM20.1666 6.64906C20.2382 6.74224 20.2144 6.78429 20.1747 6.56269C20.1371 6.35131 20.1076 6.05471 20.0587 5.56946L17.7961 5.79561C17.8415 6.24336 17.8802 6.64565 17.9382 6.96612C17.9938 7.27295 18.0916 7.67638 18.3586 8.0264L20.1666 6.64906ZM20.1666 6.64906L18.3586 8.0264C18.6019 8.34555 18.9252 8.59463 19.2958 8.74833C19.6665 8.90202 20.0713 8.95484 20.469 8.90143L20.1666 6.64906ZM21.0053 5.96153C20.7506 6.17677 20.4887 6.38333 20.2201 6.58087C20.0349 6.70928 20.0496 6.66383 20.1666 6.64906L20.469 8.90143C20.9053 8.84234 21.2599 8.62642 21.5167 8.44687C21.7838 8.26277 22.0963 8.00594 22.444 7.7207L21.0053 5.96153ZM22.1599 5.22285C21.9314 5.2993 21.7162 5.41129 21.5224 5.55469C21.3633 5.66833 21.1849 5.81493 21.0053 5.96153L22.444 7.7207C22.6475 7.55478 22.7577 7.465 22.8418 7.40591C22.9157 7.3525 22.9055 7.37068 22.852 7.38772L22.1599 5.22285ZM23.7555 5.30241C23.2508 5.0837 22.6839 5.05543 22.1599 5.22285L22.852 7.38772L23.7555 5.30241ZM24.8305 6.15244C24.6776 5.99504 24.5196 5.84268 24.3566 5.6956C24.1778 5.5337 23.9745 5.40101 23.7544 5.30241L22.852 7.38772C22.7998 7.365 22.7918 7.34681 22.8599 7.40705C22.9373 7.47523 23.0384 7.5741 23.2236 7.75933L24.8305 6.15244ZM25.8464 7.1684L24.8305 6.15244L23.2236 7.75933L24.2396 8.77529L25.8464 7.1684ZM26.6965 8.24345C26.5979 8.02327 26.4652 7.82001 26.3033 7.64115C26.1559 7.4789 26.0036 7.32125 25.8464 7.1684L24.2396 8.77643C24.4248 8.96166 24.5237 9.06281 24.5918 9.14008C24.6521 9.20826 24.6339 9.20031 24.6112 9.14804L26.6965 8.24345ZM26.7761 9.83897C26.9435 9.31503 26.9152 8.74814 26.6965 8.24345L24.6112 9.14804L26.7761 9.83897ZM26.0374 10.9936C26.1788 10.8258 26.3145 10.6534 26.4443 10.4765C26.5647 10.3083 26.6942 10.0992 26.7761 9.83897L24.6112 9.14804C24.6282 9.09462 24.6453 9.08326 24.593 9.15827C24.5339 9.24122 24.4452 9.35145 24.2782 9.55487L26.0374 10.9936ZM25.3499 11.8334C25.3351 11.9505 25.2896 11.9641 25.4181 11.7788C25.5396 11.6027 25.7283 11.3709 26.0374 10.9936L24.2782 9.55487C23.9941 9.90262 23.7361 10.2151 23.5509 10.4822C23.3725 10.739 23.1565 11.0935 23.0975 11.5299L25.3499 11.8334ZM25.3499 11.8334L23.0975 11.5299C23.044 11.9276 23.0969 12.3324 23.2506 12.7031C23.4043 13.0737 23.6534 13.3971 23.9726 13.6403L25.3499 11.8334ZM26.4294 11.9413C26.0972 11.9136 25.7659 11.8745 25.4362 11.8243C25.2146 11.7845 25.2566 11.7618 25.3499 11.8334L23.9726 13.6403C24.3225 13.9074 24.7248 14.005 25.0339 14.0608C25.3533 14.1176 25.7556 14.1574 26.2033 14.2028L26.4294 11.9413ZM27.7693 12.2345C27.5533 12.1269 27.3216 12.0541 27.0829 12.0186C26.866 11.9861 26.648 11.9604 26.4294 11.9413L26.2033 14.2028C26.3716 14.2176 26.5395 14.2366 26.7068 14.2596C26.7976 14.2756 26.7784 14.2812 26.7272 14.2551L27.7693 12.2345ZM28.841 13.4198C28.639 12.908 28.2582 12.4869 27.7693 12.2345L26.7283 14.2573L28.841 13.4198ZM29 14.7812C29 14.5494 29 14.3187 28.9876 14.1233C28.9757 13.8821 28.9258 13.6443 28.8398 13.4187L26.7283 14.2573C26.7079 14.204 26.7147 14.1857 26.7215 14.2767C26.7283 14.379 26.7283 14.521 26.7283 14.7835L29 14.7812ZM29 16.2176V14.7812H26.7272V16.2176H29ZM28.841 17.5791C28.9409 17.3257 28.9739 17.0825 28.9876 16.8745C29 16.6802 29 16.4495 29 16.2176H26.7272C26.7272 16.4802 26.7272 16.6222 26.7204 16.7245C26.7136 16.8155 26.7068 16.7972 26.7272 16.7439L28.841 17.5791ZM27.7693 18.7644C28.2582 18.512 28.639 18.0909 28.841 17.5791L26.7283 16.745L27.7693 18.7644ZM26.4294 19.0576C26.6613 19.0349 26.8897 19.0121 27.0829 18.9803C27.2875 18.9462 27.5261 18.8894 27.7693 18.7644L26.7283 16.745C26.7784 16.7188 26.7976 16.7245 26.7079 16.7393C26.5407 16.7635 26.3727 16.7828 26.2044 16.7972L26.4294 19.0576ZM25.351 19.1655C25.2566 19.2371 25.2146 19.2144 25.4362 19.1747C25.6476 19.1372 25.9442 19.1065 26.4294 19.0576L26.2033 16.7961C25.7567 16.8415 25.3533 16.8802 25.0339 16.9382C24.726 16.9938 24.3225 17.0916 23.9726 17.3586L25.351 19.1655ZM25.351 19.1655L23.9726 17.3586C23.6534 17.6018 23.4043 17.9252 23.2506 18.2958C23.0969 18.6665 23.044 19.0713 23.0975 19.469L25.351 19.1655ZM26.0374 20.0042C25.8222 19.7499 25.6156 19.4883 25.4181 19.2201C25.2896 19.0349 25.3363 19.0485 25.351 19.1655L23.0975 19.469C23.1565 19.9053 23.3725 20.2599 23.552 20.5167C23.7373 20.7838 23.9941 21.0963 24.2782 21.444L26.0374 20.0042ZM26.7761 21.1588C26.6995 20.9306 26.5875 20.7158 26.4443 20.5224C26.3306 20.3622 26.184 20.1849 26.0374 20.0042L24.2782 21.444C24.4441 21.6475 24.5339 21.7566 24.593 21.8407C24.6464 21.9145 24.6293 21.9055 24.6112 21.852L26.7761 21.1588ZM26.6965 22.7555C26.9155 22.2505 26.9438 21.6831 26.7761 21.1588L24.6112 21.852L26.6965 22.7555ZM25.8464 23.8305C26.0113 23.6657 26.1737 23.5044 26.3033 23.3566C26.4397 23.1998 26.5874 23.0055 26.6965 22.7544L24.6112 21.8509C24.6339 21.7986 24.6521 21.7918 24.5918 21.86C24.5237 21.9373 24.4248 22.0372 24.2396 22.2236L25.8464 23.8305ZM24.8305 24.8453L25.8464 23.8305L24.2396 22.2236L23.2236 23.2385L24.8305 24.8453ZM23.7555 25.6965C23.9757 25.5976 24.179 25.4645 24.3578 25.3022C24.5044 25.1737 24.6668 25.0101 24.8305 24.8453L23.2236 23.2385C23.1058 23.3593 22.9845 23.4768 22.8599 23.5907C22.7918 23.6521 22.7998 23.634 22.852 23.6112L23.7555 25.6965ZM22.1599 25.7761C22.6839 25.9435 23.2508 25.9153 23.7555 25.6965L22.852 23.6112L22.1599 25.7761ZM21.0053 25.0374C21.1849 25.184 21.3622 25.3306 21.5224 25.4443C21.6906 25.5636 21.8997 25.6931 22.1599 25.7761L22.852 23.6112C22.9055 23.6282 22.9157 23.6453 22.8407 23.593C22.7055 23.4919 22.5732 23.387 22.444 23.2782L21.0053 25.0374ZM20.1666 24.351C20.0496 24.334 20.0349 24.2885 20.2201 24.4169C20.3963 24.5396 20.6269 24.7271 21.0042 25.0363L22.444 23.2782C22.0963 22.993 21.7838 22.7361 21.5167 22.5509C21.2599 22.3713 20.9053 22.1566 20.469 22.0975L20.1666 24.351ZM20.1666 24.351L20.469 22.0975C20.0713 22.0441 19.6665 22.0969 19.2958 22.2506C18.9252 22.4043 18.6019 22.6534 18.3586 22.9726L20.1666 24.351ZM20.0575 25.4294C20.1065 24.9442 20.1371 24.6465 20.1747 24.4362C20.2144 24.2146 20.2371 24.2555 20.1655 24.3499L18.3586 22.9714C18.0916 23.3214 17.9938 23.7248 17.9382 24.0328C17.8813 24.3533 17.8427 24.7556 17.7972 25.2033L20.0575 25.4294ZM19.7632 26.7693C19.8883 26.5261 19.945 26.2875 19.9791 26.0829C20.0132 25.8897 20.0337 25.6613 20.0575 25.4294L17.7972 25.2033C17.7821 25.372 17.7624 25.5391 17.7381 25.7068C17.7234 25.7976 17.7177 25.7784 17.7439 25.7272L19.7632 26.7693ZM18.5802 27.841C19.0912 27.6385 19.5115 27.2578 19.7632 26.7693L17.745 25.7283L18.5802 27.841ZM17.2165 28C17.4495 28 17.6802 28 17.8756 27.9876C18.0825 27.9739 18.3256 27.9432 18.5802 27.841L17.745 25.7283C17.7984 25.7079 17.8166 25.7147 17.7256 25.7215C17.5568 25.7287 17.3878 25.7309 17.2188 25.7283L17.2165 28ZM15.7812 28H17.2165L17.2176 25.7272H15.7812V28ZM14.4198 27.841C14.6732 27.9409 14.9164 27.9739 15.1244 27.9876C15.3187 28 15.5494 28 15.7812 28V25.7272C15.5187 25.7272 15.3766 25.7272 15.2744 25.7204C15.1835 25.7136 15.2017 25.7068 15.2551 25.7272L14.4198 27.841ZM13.2345 26.7693C13.4869 27.2582 13.908 27.639 14.4198 27.841L15.2551 25.7272L13.2345 26.7693ZM12.9413 25.4294C12.9641 25.6613 12.9868 25.8897 13.0186 26.0829C13.0527 26.2875 13.1095 26.5261 13.2345 26.7693L15.2573 25.7283C15.2835 25.7784 15.2778 25.7976 15.263 25.7079C15.2388 25.5407 15.2195 25.3728 15.2051 25.2044L12.9413 25.4294ZM12.8333 24.3499C12.7618 24.2567 12.7845 24.2135 12.8243 24.4362C12.8618 24.6465 12.8925 24.9442 12.9413 25.4294L15.2028 25.2033C15.1573 24.7556 15.1187 24.3533 15.0608 24.0328C15.005 23.726 14.9074 23.3225 14.6402 22.9726L12.8333 24.3499ZM12.8333 24.3499L14.6402 22.9726C14.3971 22.6534 14.0737 22.4043 13.703 22.2506C13.3324 22.0969 12.9276 22.0441 12.5299 22.0975L12.8333 24.3499ZM11.9936 25.0374C12.372 24.7283 12.6027 24.5396 12.7788 24.4181C12.9641 24.2896 12.9505 24.3351 12.8333 24.3499L12.5299 22.0975C12.0935 22.1566 11.739 22.3725 11.4822 22.552C11.2151 22.7361 10.9026 22.993 10.5549 23.2782L11.9936 25.0374ZM10.839 25.7761C11.0676 25.6996 11.2827 25.5876 11.4765 25.4443C11.6356 25.3306 11.814 25.184 11.9936 25.0374L10.556 23.2794C10.4265 23.3881 10.295 23.4931 10.1594 23.5942C10.0855 23.6476 10.0958 23.6305 10.1492 23.6123L10.839 25.7761ZM9.24345 25.6965C9.74814 25.9153 10.315 25.9435 10.839 25.7761L10.1469 23.6112L9.24345 25.6965ZM8.16726 24.8465C8.33204 25.0113 8.49454 25.1737 8.64228 25.3033C8.79797 25.4397 8.99229 25.5886 9.24458 25.6977L10.1469 23.6112C10.1992 23.634 10.2071 23.6521 10.1389 23.5918C10.0143 23.478 9.89308 23.3605 9.77529 23.2396L8.16726 24.8465ZM7.15244 23.8305L8.1684 24.8465L9.77529 23.2396L8.75933 22.2236L7.15244 23.8305ZM6.3024 22.7555C6.41036 23.0055 6.55923 23.201 6.6956 23.3578C6.82516 23.5044 6.98766 23.6669 7.15244 23.8305L8.75933 22.2236C8.63843 22.1058 8.52096 21.9846 8.40705 21.86C8.34681 21.7918 8.36499 21.7998 8.38772 21.852L6.3024 22.7555ZM6.22285 21.1599C6.05543 21.6839 6.0837 22.2508 6.3024 22.7555L8.38772 21.852L6.22285 21.1599ZM6.96153 20.0053C6.82011 20.1731 6.68441 20.3455 6.55468 20.5224C6.41129 20.7162 6.2993 20.9314 6.22285 21.1599L8.38772 21.852C8.36954 21.9055 8.35363 21.9157 8.4059 21.8407C8.465 21.7577 8.55364 21.6475 8.7207 21.444L6.96153 20.0053ZM7.64792 19.1655C7.66383 19.0485 7.70928 19.0349 7.58087 19.2201C7.45928 19.3963 7.27062 19.6281 6.96153 20.0053L8.7207 21.444C9.0048 21.0963 9.26277 20.7838 9.448 20.5167C9.62641 20.2599 9.84234 19.9053 9.90143 19.469L7.64792 19.1655ZM7.64792 19.1655L9.90143 19.469C9.95485 19.0713 9.90202 18.6665 9.74833 18.2958C9.59463 17.9252 9.34555 17.6018 9.02639 17.3586L7.64792 19.1655ZM6.56832 19.0576C7.05471 19.1065 7.35245 19.1372 7.56269 19.1747C7.78429 19.2144 7.74224 19.2371 7.64792 19.1655L9.02639 17.3586C8.67638 17.0916 8.27409 16.9938 7.96498 16.9382C7.64564 16.8813 7.24335 16.8415 6.79447 16.7961L6.56832 19.0576ZM5.22963 18.7644C5.47282 18.8894 5.71147 18.9462 5.91602 18.9803C6.10921 19.0121 6.33763 19.036 6.56946 19.0587L6.79447 16.7961C6.62614 16.782 6.4594 16.7631 6.29217 16.7393C6.20126 16.7234 6.22058 16.7177 6.27172 16.7439L5.22963 18.7644ZM4.15912 17.5802C4.3611 18.0921 4.74186 18.5132 5.23076 18.7655L6.27286 16.745L4.15912 17.5802ZM4.00002 16.2188C4.00002 16.4507 4.00002 16.6813 4.01253 16.8768C4.02616 17.0836 4.05798 17.3268 4.16026 17.5813L6.27286 16.7439C6.29331 16.7972 6.28649 16.8155 6.28081 16.7245C6.27332 16.5561 6.27066 16.3874 6.27286 16.2188H4.00002ZM4.00002 14.7824V16.2188H6.27286V14.7824H4.00002ZM4.15912 13.4198C4.07352 13.6455 4.02404 13.8833 4.01253 14.1244C3.99889 14.3199 4.00002 14.5505 4.00002 14.7835H6.27286C6.27286 14.5198 6.27286 14.3778 6.28081 14.2756C6.28649 14.1846 6.29331 14.2028 6.27286 14.2562L4.15912 13.4198ZM5.23076 12.2368C4.74227 12.4886 4.36156 12.9089 4.15912 13.4198L6.27286 14.2562L5.23076 12.2368ZM6.5706 11.9413C6.33877 11.9652 6.11035 11.9868 5.91715 12.0209C5.7126 12.055 5.47395 12.1118 5.23076 12.2368L6.27286 14.2562C6.22172 14.2824 6.20353 14.2767 6.29331 14.2619C6.46052 14.2377 6.62841 14.2184 6.79674 14.204L6.5706 11.9413ZM7.65019 11.8345C7.74451 11.763 7.78656 11.7856 7.56382 11.8254C7.35359 11.8629 7.05584 11.8936 6.5706 11.9425L6.79674 14.204C7.24335 14.1585 7.64678 14.1199 7.96725 14.0619C8.27522 14.0062 8.67864 13.9085 9.02866 13.6415L7.65019 11.8345ZM7.65019 11.8345L9.02866 13.6415C9.34761 13.3981 9.59647 13.0747 9.74997 12.704C9.90346 12.3333 9.95611 11.9286 9.90256 11.5311L7.65019 11.8345ZM6.96266 10.9947C7.27177 11.372 7.46041 11.6038 7.58314 11.78C7.71156 11.9652 7.6661 11.9516 7.65019 11.8345L9.90256 11.5311C9.84347 11.0947 9.62869 10.7413 9.44913 10.4833C9.2639 10.2163 9.00593 9.90375 8.72183 9.556L6.96266 10.9947ZM6.22399 9.83897C6.30695 10.1004 6.43536 10.3083 6.55582 10.4777C6.66946 10.6367 6.81606 10.8152 6.96266 10.9947L8.72183 9.556C8.6131 9.42648 8.50813 9.29498 8.40705 9.1594C8.35363 9.08553 8.37181 9.09462 8.38886 9.14804L6.22399 9.83897ZM6.30354 8.24459C6.08511 8.74894 6.05685 9.31537 6.22399 9.83897L8.38886 9.14804L6.30354 8.24459ZM7.15358 7.1684C6.9888 7.33318 6.82629 7.49455 6.69674 7.64228C6.53483 7.82114 6.40214 8.0244 6.30354 8.24459L8.38886 9.14804C8.36614 9.20031 8.34795 9.20826 8.40818 9.13894C8.47636 9.06166 8.57523 8.96166 8.76047 8.77529L7.15358 7.1684ZM8.16953 6.15358L7.15358 7.1684L8.76047 8.77529L9.77756 7.76047L8.16953 6.15358ZM9.24458 5.30241C9.02432 5.40135 8.82106 5.53443 8.64228 5.69674C8.48004 5.84413 8.32239 5.99648 8.16953 6.15358L9.77756 7.76047C9.9628 7.5741 10.0628 7.47523 10.1401 7.40818C10.2083 7.34681 10.2003 7.365 10.148 7.38772L9.24458 5.30241ZM10.8401 5.22285C10.3162 5.05543 9.74928 5.0837 9.24458 5.30241L10.148 7.38772L10.8401 5.22285ZM11.9936 5.96153C11.814 5.81493 11.6379 5.66946 11.4777 5.55582C11.2839 5.41202 11.0688 5.29965 10.8401 5.22285L10.148 7.38772C10.0946 7.37068 10.0844 7.35363 10.1594 7.40591C10.2424 7.46614 10.3526 7.55478 10.556 7.72183L11.9936 5.96153ZM12.8345 6.64906C12.9516 6.66496 12.9652 6.71043 12.78 6.58201C12.5117 6.38444 12.2502 6.17788 11.9959 5.96266L10.556 7.72183C10.9037 8.00594 11.2151 8.26277 11.4822 8.44914C11.739 8.62756 12.0935 8.84234 12.5299 8.90143L12.8345 6.64906ZM12.8345 6.64906L12.5311 8.90143C12.9288 8.95484 13.3336 8.90202 13.7042 8.74833C14.0748 8.59463 14.3982 8.34555 14.6414 8.0264L12.8345 6.64906ZM12.9424 5.56946C12.8936 6.05585 12.8629 6.35359 12.8254 6.56383C12.7856 6.78543 12.7629 6.74338 12.8345 6.64906L14.6414 8.0264C14.9085 7.67638 15.0062 7.27409 15.0619 6.96612C15.1187 6.64678 15.1596 6.24336 15.204 5.79561L12.9424 5.56946ZM13.2356 4.23076C13.1281 4.44679 13.0552 4.67843 13.0197 4.91716C12.988 5.11035 12.9652 5.33877 12.9424 5.5706L15.204 5.79561C15.2188 5.62736 15.2377 5.46063 15.2607 5.29331C15.2767 5.2024 15.2824 5.22285 15.2562 5.27286L13.2356 4.23076ZM14.421 3.15912C13.9091 3.3611 13.488 3.74186 13.2356 4.23076L15.2562 5.27286L14.421 3.15912ZM15.7823 3.00002C15.5505 3.00002 15.3199 3.00002 15.1244 3.01253C14.8833 3.02404 14.6455 3.07352 14.4198 3.15912L15.2573 5.27286C15.204 5.29331 15.1857 5.28649 15.2767 5.28081C15.3789 5.27399 15.521 5.27286 15.7835 5.27286L15.7823 3.00002ZM17.2188 3.00002H15.7823V5.27286H17.2188V3.00002ZM18.5802 3.15912C18.3545 3.07352 18.1167 3.02404 17.8756 3.01253C17.6825 2.99889 17.4518 3.00002 17.2199 3.00002V5.27286C17.4825 5.27286 17.6245 5.27286 17.7268 5.28081C17.8177 5.28649 17.7984 5.29331 17.745 5.27286L18.5802 3.15912ZM19.7655 4.23076C19.5132 3.74186 19.092 3.3611 18.5802 3.15912L17.745 5.27286L19.7655 4.23076ZM19.9098 15.5006C19.9098 16.4048 19.5507 17.272 18.9113 17.9113C18.272 18.5507 17.4048 18.9098 16.5006 18.9098V21.1827C18.0076 21.1827 19.4528 20.584 20.5185 19.5184C21.584 18.4528 22.1827 17.0076 22.1827 15.5006H19.9098ZM16.5006 12.0914C17.4048 12.0914 18.272 12.4505 18.9113 13.0899C19.5507 13.7292 19.9098 14.5964 19.9098 15.5006H22.1827C22.1827 13.9936 21.584 12.5484 20.5185 11.4828C19.4528 10.4172 18.0076 9.81852 16.5006 9.81852V12.0914ZM13.0913 15.5006C13.0913 14.5964 13.4505 13.7292 14.0899 13.0899C14.7292 12.4505 15.5964 12.0914 16.5006 12.0914V9.81852C14.9936 9.81852 13.5484 10.4172 12.4828 11.4828C11.4171 12.5484 10.8185 13.9936 10.8185 15.5006H13.0913ZM16.5006 18.9098C15.5964 18.9098 14.7292 18.5507 14.0899 17.9113C13.4505 17.272 13.0913 16.4048 13.0913 15.5006H10.8185C10.8185 17.0076 11.4171 18.4528 12.4828 19.5184C13.5484 20.584 14.9936 21.1827 16.5006 21.1827V18.9098Z" fill="white"/>
</svg>
