<svg width="32" height="32" viewBox="0 0 32 32" fill="none" xmlns="http://www.w3.org/2000/svg">
<path fill-rule="evenodd" clip-rule="evenodd" d="M5.33334 7.99999C5.33334 5.05447 7.72116 2.66666 10.6667 2.66666H18.6667V7.99999C18.6667 10.9455 21.0545 13.3333 24 13.3333H26.6667V24C26.6667 26.9455 24.2789 29.3333 21.3333 29.3333H10.6667C7.72116 29.3333 5.33334 26.9455 5.33334 24V7.99999ZM10.6667 14.6667C9.9303 14.6667 9.33334 15.2636 9.33334 16C9.33334 16.7364 9.9303 17.3333 10.6667 17.3333H13.3333C14.0697 17.3333 14.6667 16.7364 14.6667 16C14.6667 15.2636 14.0697 14.6667 13.3333 14.6667H10.6667ZM10.6667 20C9.9303 20 9.33334 20.5969 9.33334 21.3333C9.33334 22.0697 9.9303 22.6667 10.6667 22.6667H16C16.7364 22.6667 17.3333 22.0697 17.3333 21.3333C17.3333 20.5969 16.7364 20 16 20H10.6667ZM22.2424 5.59838L22.0678 8.21716C22.0142 9.02207 22.682 9.68989 23.4869 9.63623L26.1057 9.46164C27.2487 9.38544 27.7698 7.99848 26.9598 7.18846L24.5156 4.74426C23.7056 3.93424 22.3186 4.45537 22.2424 5.59838Z" fill="white"/>
</svg>
