<svg width="32" height="32" viewBox="0 0 32 32" fill="none" xmlns="http://www.w3.org/2000/svg">
<path fill-rule="evenodd" clip-rule="evenodd" d="M6.80893 6.80893C6.85046 6.7675 6.89976 6.73466 6.95399 6.7123C7.00823 6.68992 7.06634 6.67847 7.125 6.67857H9.80357C10.1588 6.67857 10.4994 6.53747 10.7506 6.2863C11.0018 6.03514 11.1429 5.69448 11.1429 5.33929C11.1429 4.98409 11.0018 4.64343 10.7506 4.39227C10.4994 4.1411 10.1588 4 9.80357 4H7.125C6.2962 4 5.50134 4.32924 4.91529 4.91529C4.32924 5.50134 4 6.2962 4 7.125V9.80357C4 10.1588 4.1411 10.4994 4.39227 10.7506C4.64343 11.0018 4.98409 11.1429 5.33929 11.1429C5.69448 11.1429 6.03514 11.0018 6.2863 10.7506C6.53747 10.4994 6.67857 10.1588 6.67857 9.80357V7.125C6.67847 7.06634 6.68992 7.00823 6.7123 6.95399C6.73466 6.89976 6.7675 6.85046 6.80893 6.80893ZM29 23.1964C29 22.8412 28.8589 22.5005 28.6077 22.2494C28.3566 21.9983 28.0159 21.8571 27.6607 21.8571C27.3055 21.8571 26.9648 21.9983 26.7137 22.2494C26.4625 22.5005 26.3214 22.8412 26.3214 23.1964V25.875C26.3214 25.9934 26.2744 26.107 26.1907 26.1907C26.107 26.2744 25.9934 26.3214 25.875 26.3214H23.1964C22.8412 26.3214 22.5005 26.4625 22.2494 26.7137C21.9983 26.9648 21.8571 27.3055 21.8571 27.6607C21.8571 28.0159 21.9983 28.3566 22.2494 28.6077C22.5005 28.8589 22.8412 29 23.1964 29H25.875C26.7038 29 27.4987 28.6708 28.0847 28.0847C28.6708 27.4987 29 26.7038 29 25.875V23.1964ZM5.33929 21.8571C5.69448 21.8571 6.03514 21.9983 6.2863 22.2494C6.53747 22.5005 6.67857 22.8412 6.67857 23.1964V25.875C6.67857 25.9934 6.72561 26.107 6.80933 26.1907C6.89305 26.2744 7.0066 26.3214 7.125 26.3214H9.80357C10.1588 26.3214 10.4994 26.4625 10.7506 26.7137C11.0018 26.9648 11.1429 27.3055 11.1429 27.6607C11.1429 28.0159 11.0018 28.3566 10.7506 28.6077C10.4994 28.8589 10.1588 29 9.80357 29H7.125C6.2962 29 5.50134 28.6708 4.91529 28.0847C4.32924 27.4987 4 26.7038 4 25.875V23.1964C4 22.8412 4.1411 22.5005 4.39227 22.2494C4.64343 21.9983 4.98409 21.8571 5.33929 21.8571ZM23.1964 4C22.8412 4 22.5005 4.1411 22.2494 4.39227C21.9983 4.64343 21.8571 4.98409 21.8571 5.33929C21.8571 5.69448 21.9983 6.03514 22.2494 6.2863C22.5005 6.53747 22.8412 6.67857 23.1964 6.67857H25.875C25.9934 6.67857 26.107 6.72561 26.1907 6.80933C26.2744 6.89305 26.3214 7.0066 26.3214 7.125V9.80357C26.3214 10.1588 26.4625 10.4994 26.7137 10.7506C26.9648 11.0018 27.3055 11.1429 27.6607 11.1429C28.0159 11.1429 28.3566 11.0018 28.6077 10.7506C28.8589 10.4994 29 10.1588 29 9.80357V7.125C29 6.2962 28.6708 5.50134 28.0847 4.91529C27.4987 4.32924 26.7038 4 25.875 4H23.1964ZM16.5 17.8857C14.8892 17.8856 13.3169 18.378 11.9939 19.297C10.6709 20.2159 9.66052 21.5173 9.09821 23.0268C8.89821 23.5607 9.325 24.0893 9.89464 24.0893H23.1018C23.6732 24.0893 24.0982 23.5607 23.9 23.0268C23.3377 21.5173 22.3273 20.2159 21.0043 19.297C19.6813 18.378 18.1108 17.8856 16.5 17.8857ZM20.4429 11.9661C20.4429 13.013 20.027 14.017 19.2867 14.7573C18.5465 15.4975 17.5424 15.9134 16.4955 15.9134C15.4487 15.9134 14.4446 15.4975 13.7044 14.7573C12.9641 14.017 12.5482 13.013 12.5482 11.9661C12.5482 10.9192 12.9641 9.91516 13.7044 9.17489C14.4446 8.43462 15.4487 8.01875 16.4955 8.01875C17.5424 8.01875 18.5465 8.43462 19.2867 9.17489C20.027 9.91516 20.4429 10.9192 20.4429 11.9661Z" fill="white"/>
</svg>
