<svg width="32" height="32" viewBox="0 0 32 32" fill="none" xmlns="http://www.w3.org/2000/svg">
<path fill-rule="evenodd" clip-rule="evenodd" d="M3.28985 1.00421C3.93282 0.361223 4.80491 0 5.71422 0H19.4285C19.7316 0 20.0223 0.120408 20.2366 0.334736L29.3796 9.4776C29.5938 9.69191 29.7142 9.98261 29.7142 10.2857V28.5714C29.7142 29.4807 29.3531 30.3529 28.7101 30.9959C28.0671 31.6389 27.1949 32 26.2856 32H5.71422C4.80489 32 3.93282 31.6389 3.28985 30.9959C2.64688 30.3529 2.28564 29.4807 2.28564 28.5714V3.42857C2.28564 2.51927 2.64688 1.64719 3.28985 1.00421ZM11.3275 9.03145C12.6206 9.03145 13.6688 7.9832 13.6688 6.6901C13.6688 5.39703 12.6206 4.34878 11.3275 4.34878C10.0344 4.34878 8.98615 5.39703 8.98615 6.6901C8.98615 7.9832 10.0344 9.03145 11.3275 9.03145ZM6.57316 19.4285C6.572 18.6395 7.21063 17.9999 7.99961 17.9999H23.9997C24.7885 17.9999 25.4292 18.6395 25.4303 19.4285C25.4315 20.2174 24.7928 20.8571 24.0038 20.857H8.00388C7.21492 20.857 6.57435 20.2174 6.57316 19.4285ZM6.57316 26.2857C6.572 25.4967 7.21063 24.8571 7.99961 24.8571H17.1425C17.9315 24.8571 18.572 25.4967 18.5732 26.2857C18.5744 27.0745 17.9357 27.7143 17.1468 27.7143H8.00388C7.21492 27.7143 6.57435 27.0745 6.57316 26.2857ZM11.3261 10.5921C9.72647 10.5921 8.26738 11.1936 7.16265 12.1828C6.5069 12.77 7.01899 13.7139 7.8992 13.7139H14.753C15.6332 13.7139 16.1452 12.77 15.4895 12.1828C14.3848 11.1936 12.9257 10.5921 11.3261 10.5921Z" fill="white"/>
</svg>
